<?xml version="1.0" standalone="no"?>
<!DOCTYPE svg PUBLIC "-//W3C//DTD SVG 20010904//EN"
 "http://www.w3.org/TR/2001/REC-SVG-20010904/DTD/svg10.dtd">
<svg version="1.0" xmlns="http://www.w3.org/2000/svg"
 width="1024.000000pt" height="1024.000000pt" viewBox="0 0 1024.000000 1024.000000"
 preserveAspectRatio="xMidYMid meet">

<g transform="translate(0.000000,1024.000000) scale(0.100000,-0.100000)"
fill="#1c1f2c" stroke="none">
<path d="M0 5120 l0 -5120 5120 0 5120 0 0 5120 0 5120 -5120 0 -5120 0 0
-5120z m5575 2509 c248 -32 680 -186 873 -311 34 -22 62 -44 62 -48 0 -12
-174 -160 -188 -160 -7 0 -68 29 -135 65 -177 93 -293 134 -562 196 -231 54
-524 51 -813 -6 -417 -84 -835 -325 -1118 -644 -136 -153 -200 -246 -279 -405
-54 -109 -78 -146 -104 -163 -68 -46 -131 -19 -172 73 -18 40 -18 44 -2 95 24
73 143 277 233 401 213 291 581 580 923 724 251 106 502 171 762 198 65 7 434
-4 520 -15z m1488 -269 c27 -30 34 -63 18 -89 -45 -71 -1304 -1313 -1356
-1338 -40 -19 -77 -11 -112 23 -21 21 -25 32 -20 65 9 71 3 64 968 1016 252
249 356 344 380 352 50 15 90 5 122 -29z m-16 -552 c77 -80 155 -186 243 -333
119 -199 127 -235 66 -300 -42 -44 -77 -52 -126 -30 -51 23 -58 31 -124 149
-71 125 -126 202 -215 300 -45 50 -68 83 -63 91 10 17 156 174 162 174 3 1 29
-23 57 -51z m1610 -509 c75 -36 133 -120 133 -193 0 -70 -54 -152 -122 -185
-134 -64 -264 -21 -320 107 -46 103 18 243 132 291 35 15 127 4 177 -20z
m-2538 -467 c69 -39 333 -304 504 -505 l152 -178 6 298 c3 164 7 324 8 356 l1
57 112 0 111 0 -6 -557 c-4 -307 -10 -568 -13 -580 -9 -31 -27 -29 -82 9 -105
72 -499 489 -622 659 -19 26 -38 48 -42 48 -5 1 -8 -163 -8 -364 l0 -365 -115
0 -115 0 0 564 c0 310 3 572 6 581 8 21 40 14 103 -23z m-2424 3 c257 -54 445
-280 445 -536 0 -70 -25 -187 -52 -245 -46 -99 -184 -226 -305 -282 -87 -40
-188 -51 -470 -52 l-193 0 0 572 0 571 253 -7 c157 -4 278 -12 322 -21z m1467
5 c229 -43 405 -215 453 -445 46 -221 -23 -418 -194 -550 -125 -95 -228 -129
-375 -123 -245 11 -440 149 -526 373 -19 50 -24 85 -28 202 l-4 142 31 68 c45
96 99 162 178 220 89 66 117 80 210 102 89 22 174 26 255 11z m3098 -95 l0
-105 -300 0 -300 0 0 -120 0 -120 248 -2 247 -3 3 -102 3 -103 -251 0 -250 0
0 -120 0 -120 308 -2 307 -3 3 -115 3 -116 -173 3 c-95 2 -282 6 -415 9 l-243
6 0 559 0 559 405 0 405 0 0 -105z m-5814 -242 c47 -24 100 -90 114 -142 17
-65 -4 -135 -58 -194 -81 -86 -161 -108 -247 -68 -53 25 -88 64 -121 135 -30
66 -29 122 4 185 49 94 206 137 308 84z m422 -569 c15 -4 17 -170 2 -210 l-11
-27 -115 5 c-79 4 -120 10 -129 19 -13 13 -45 164 -45 210 0 17 10 18 143 13
78 -3 148 -7 155 -10z m1730 -358 c38 -44 49 -98 26 -134 -19 -30 -1081 -1090
-1131 -1129 -76 -59 -149 -59 -179 0 -38 73 4 141 171 279 67 56 318 298 565
547 245 247 454 453 465 459 33 19 51 14 83 -22z m-1253 -160 c21 -17 51 -61
85 -128 29 -57 79 -140 112 -186 l60 -83 -54 -57 c-29 -31 -66 -72 -81 -91
l-28 -34 -25 24 c-44 41 -144 198 -206 324 -50 101 -59 126 -55 158 13 96 112
134 192 73z m3973 8 c29 -20 52 -65 52 -101 0 -50 -55 -145 -179 -311 -198
-264 -380 -441 -606 -587 -216 -141 -347 -205 -555 -275 -504 -168 -1035 -169
-1535 -3 -136 45 -358 145 -475 215 l-89 53 37 30 c20 16 63 54 94 83 l57 54
94 -57 c172 -102 387 -184 610 -231 231 -49 606 -44 872 11 350 73 699 247
970 484 114 100 299 322 418 503 41 62 88 121 103 130 36 22 103 23 132 2z"/>
<path d="M8471 6243 c-49 -24 -71 -66 -71 -138 0 -72 22 -114 73 -138 39 -19
118 -22 147 -7 19 10 18 11 -4 45 -13 19 -29 57 -36 85 -10 43 -10 54 4 75 31
47 97 21 68 -26 -15 -23 -15 -62 -1 -111 12 -46 23 -48 50 -5 16 25 19 44 16
90 -3 48 -8 62 -36 91 -53 54 -144 71 -210 39z m77 -120 c3 -104 -7 -136 -41
-131 -21 3 -22 8 -25 116 l-3 113 33 -3 33 -3 3 -92z"/>
<path d="M3344 5303 c3 -191 10 -351 15 -356 5 -5 70 -5 155 2 121 8 155 15
198 35 81 38 124 80 160 153 30 61 33 75 33 162 0 115 -18 163 -88 233 -81 80
-146 100 -376 113 l-104 5 7 -347z"/>
<path d="M4970 5621 c-63 -13 -129 -51 -171 -99 -65 -75 -73 -95 -77 -215 -5
-136 8 -176 87 -256 71 -73 129 -95 256 -95 108 -1 159 19 230 92 71 72 100
140 100 237 0 102 -23 170 -80 233 -63 70 -141 107 -235 109 -41 1 -91 -2
-110 -6z"/>
</g>
</svg>
