<?xml version="1.0" encoding="UTF-8"?>
<svg version="1.1" xmlns="http://www.w3.org/2000/svg" width="1890" height="1417">
<path d="M0 0 C1.3841094 0.00901403 2.76822453 0.01718316 4.15234375 0.02453613 C82.84909068 0.44854916 174.58042365 18.90289777 238.5625 68.375 C238.00628126 72.02220572 236.77142932 73.39519037 233.9375 75.6875 C231.18324491 77.98597978 228.56741264 80.30659879 226.0625 82.875 C222.39925009 86.58797729 218.5431009 90.00736733 214.5625 93.375 C213.81613281 94.0453125 213.06976562 94.715625 212.30078125 95.40625 C211.54152344 96.0559375 210.78226563 96.705625 210 97.375 C209.31808594 97.973125 208.63617187 98.57125 207.93359375 99.1875 C204.37393882 100.97025964 202.3927182 100.37880847 198.5625 99.375 C195.36144612 97.92514759 192.34945307 96.20139139 189.3125 94.4375 C187.52275277 93.42989224 185.7323732 92.42340694 183.94140625 91.41796875 C182.59006592 90.65299072 182.59006592 90.65299072 181.21142578 89.87255859 C166.76143962 81.70332218 152.20727974 74.9633432 136.5625 69.375 C135.169104 68.87685791 135.169104 68.87685791 133.74755859 68.36865234 C98.67971282 56.0633936 59.39821969 45.35522639 22.078125 45.171875 C20.62927414 45.16135353 20.62927414 45.16135353 19.15115356 45.15061951 C16.0382211 45.1331819 12.92547957 45.12676347 9.8125 45.125 C8.7434845 45.12432526 7.67446899 45.12365051 6.57305908 45.12295532 C-11.2803289 45.14080571 -28.73537314 45.89112867 -46.4375 48.375 C-47.67516113 48.54660645 -48.91282227 48.71821289 -50.18798828 48.89501953 C-122.65016534 59.27060189 -194.78062744 90.06647044 -248.9609375 140.109375 C-250.95977586 141.9379653 -252.98754678 143.70539371 -255.04296875 145.46875 C-259.8703989 149.6834592 -264.41616023 154.16758116 -268.94604492 158.69824219 C-270.36418284 160.11419947 -271.79046665 161.52198289 -273.21679688 162.9296875 C-278.64721369 168.34878308 -283.67500389 173.92228513 -288.46508789 179.91455078 C-290.51982205 182.47769113 -292.65657167 184.94433307 -294.83398438 187.40258789 C-311.7128501 206.54353825 -324.2078269 227.81321919 -334.63842773 251.02758789 C-345.12496682 274.32144181 -345.12496682 274.32144181 -355.80859375 279.53125 C-361.61887816 281.39606639 -368.03952219 281.34341412 -373.6875 279.0625 C-379.68264256 273.20361068 -385.84815812 265.82066643 -387.4375 257.375 C-387.45908763 250.2796091 -385.65133059 244.46383901 -382.625 238.125 C-382.22756592 237.27147949 -381.83013184 236.41795898 -381.4206543 235.53857422 C-367.01946661 205.12224882 -348.63701912 176.67297417 -326.4375 151.375 C-325.82777344 150.66601562 -325.21804688 149.95703125 -324.58984375 149.2265625 C-322.89099075 147.25862404 -321.17016664 145.31323726 -319.4375 143.375 C-318.6640625 142.50875 -317.890625 141.6425 -317.09375 140.75 C-307.14344876 129.74613745 -296.84406261 118.88406259 -285.4375 109.375 C-283.99697266 108.13556641 -283.99697266 108.13556641 -282.52734375 106.87109375 C-260.00484926 87.5206853 -235.44577977 70.72983512 -209.81787109 55.77148438 C-207.64417088 54.49624692 -205.48755395 53.19623787 -203.33203125 51.890625 C-144.13378817 16.77229566 -68.12232135 -0.71731781 0 0 Z " fill="#FAFAFA" transform="translate(963.4375,241.625)"/>
<path d="M0 0 C5.92166653 3.47997744 10.38810881 8.04842878 13.21484375 14.31640625 C16.20238745 34.56531358 2.02626198 50.74269419 -9.22265625 66.12890625 C-10.397198 67.74995466 -11.57167821 69.37104766 -12.74609375 70.9921875 C-24.58547337 87.25700662 -36.82679902 103.11264472 -50.22265625 118.12890625 C-50.88458984 118.87841553 -51.54652344 119.6279248 -52.22851562 120.40014648 C-57.98367081 126.87086611 -63.97713515 133.066617 -70.09765625 139.19140625 C-71.47244141 140.58456055 -71.47244141 140.58456055 -72.875 142.00585938 C-78.27289008 147.41513741 -83.8238509 152.42746174 -89.81079102 157.1784668 C-92.06089224 158.9980901 -94.17936525 160.89569652 -96.28515625 162.87890625 C-116.00042333 180.5115747 -139.92860772 194.61384804 -162.78027344 207.72412109 C-165.0119244 209.00769962 -167.23185441 210.30914402 -169.44921875 211.6171875 C-230.21701187 247.13405841 -306.98058893 262.33087371 -376.59765625 262.37890625 C-377.48905304 262.37958099 -378.38044983 262.38025574 -379.29885864 262.38095093 C-396.06056413 262.36102113 -412.56363144 261.40680334 -429.19836426 259.37567139 C-431.25238574 259.12528217 -433.30727621 258.88308351 -435.36230469 258.64111328 C-476.31049292 253.73763746 -516.88633534 242.81018041 -554.34912109 225.45751953 C-557.47125002 224.01396595 -560.60587916 222.5999656 -563.7421875 221.1875 C-581.9511199 212.94304328 -599.62533481 204.30980169 -616.22265625 193.12890625 C-617.3511672 192.37570947 -618.48006262 191.62308837 -619.609375 190.87109375 C-620.90294922 190.00871094 -620.90294922 190.00871094 -622.22265625 189.12890625 C-621.52914062 188.57847656 -620.835625 188.02804687 -620.12109375 187.4609375 C-616.99873424 184.94874259 -613.90686408 182.40486641 -610.84765625 179.81640625 C-610.24840332 179.31020752 -609.64915039 178.80400879 -609.03173828 178.2824707 C-603.40754419 173.44770101 -598.23765113 168.2045503 -593.19775391 162.76635742 C-592.30902588 161.83786987 -592.30902588 161.83786987 -591.40234375 160.890625 C-590.62479736 160.05470825 -590.62479736 160.05470825 -589.83154297 159.2019043 C-588.22265625 158.12890625 -588.22265625 158.12890625 -586.30249023 158.29003906 C-583.93307635 159.24570359 -581.91877639 160.41127286 -579.765625 161.7890625 C-578.90912354 162.33111328 -578.05262207 162.87316406 -577.17016602 163.43164062 C-575.80396118 164.30272461 -575.80396118 164.30272461 -574.41015625 165.19140625 C-518.81204529 199.95611548 -453.39144207 217.38415767 -388.03515625 217.31640625 C-386.96307922 217.315802 -385.8910022 217.31519775 -384.78643799 217.3145752 C-368.83587961 217.29014998 -353.08194574 216.96953579 -337.22265625 215.12890625 C-335.51529297 214.94352295 -335.51529297 214.94352295 -333.7734375 214.75439453 C-261.609757 206.77810348 -193.80448466 179.33142747 -136.22265625 135.12890625 C-135.0934375 134.27425781 -135.0934375 134.27425781 -133.94140625 133.40234375 C-131.67835314 131.67225604 -129.44634248 129.90932059 -127.22265625 128.12890625 C-126.30613281 127.39929688 -125.38960937 126.6696875 -124.4453125 125.91796875 C-111.21152764 115.16458547 -98.60120854 102.98041431 -88.11328125 89.51953125 C-86.12724424 87.00826132 -84.01836619 84.66927367 -81.84765625 82.31640625 C-76.77759815 76.74375108 -72.17545734 70.84517909 -67.578125 64.8828125 C-66.30049282 63.22962274 -65.01331466 61.58443489 -63.72265625 59.94140625 C-53.57436995 46.93078279 -44.22188899 33.52271916 -35.76245117 19.34765625 C-27.46396573 5.59399113 -27.46396573 5.59399113 -20.03515625 2.25390625 C-19.19597656 1.86460937 -18.35679687 1.4753125 -17.4921875 1.07421875 C-11.83586675 -1.28177027 -5.86398644 -2.29818801 0 0 Z " fill="#FAFAFA" transform="translate(1347.22265625,833.87109375)"/>
<path d="M0 0 C17.54038947 2.22685553 31.07756224 14.89043569 43.49121094 26.58837891 C45.50800785 28.47529149 47.55574931 30.32693534 49.6027832 32.1809082 C57.56224292 39.40505937 65.23280451 46.82989139 72.22265625 55.00390625 C74.23268777 57.26132626 76.34832953 59.37735713 78.5 61.5 C81.84933729 64.80986698 84.99925956 68.20746949 88.0625 71.78125 C89.9857634 73.9836968 91.96045744 76.13257855 93.94946289 78.27563477 C98.7036875 83.40114323 103.23364385 88.63890667 107.62109375 94.0859375 C110.35904676 97.43981755 113.17205211 100.72203027 116 104 C120.28267055 108.96590339 124.47817997 113.98720643 128.57421875 119.109375 C130.87876311 121.85553092 133.25018748 124.51915675 135.65161133 127.18066406 C136.87174675 128.5337265 136.87174675 128.5337265 138.11653137 129.91412354 C138.73807602 130.60246277 139.35962067 131.290802 140 132 C140.01213028 130.70409187 140.01213028 130.70409187 140.02450562 129.38200378 C140.12989269 118.31703893 140.24748584 107.2522321 140.375 96.1875 C140.38516521 95.30473137 140.39533043 94.42196274 140.40580368 93.51244354 C140.75829496 63.30101243 141.62783685 33.18758939 143 3 C156.86 3 170.72 3 185 3 C185.06454813 28.77314644 184.82013803 54.54088534 184.5625 80.3125 C184.53987396 82.59945676 184.51725027 84.88641355 184.49462891 87.17337036 C184.23510302 113.26246154 183.9684229 139.35118995 183.5 165.4375 C183.48212433 166.47653473 183.46424866 167.51556946 183.4458313 168.58609009 C183.33202467 175.05852249 183.18695502 181.52926306 183 188 C182.97115723 189.01862122 182.94231445 190.03724243 182.91259766 191.08673096 C182.8177619 194.23671039 182.70821023 197.385834 182.59375 200.53515625 C182.55030457 201.97549477 182.55030457 201.97549477 182.50598145 203.44493103 C182.31070799 208.31547452 181.87659223 212.42794758 180 217 C174.14629437 217.50386327 170.91157968 216.24637404 166.375 212.75 C165.77671387 212.30615967 165.17842773 211.86231934 164.56201172 211.4050293 C159.01510918 207.20077732 153.92113836 202.53532306 148.88671875 197.73828125 C146.61636531 195.58467129 144.32315458 193.5216578 141.9375 191.5 C137.74694774 187.89271519 133.89725994 183.94994092 130.03491211 179.99804688 C127.2936964 177.13883441 127.2936964 177.13883441 124 175 C124 174.34 124 173.68 124 173 C123.34 173 122.68 173 122 173 C120.58984375 171.56640625 120.58984375 171.56640625 118.9375 169.5625 C116.24825006 166.39242783 113.46486623 163.41418475 110.5 160.5 C107.12899935 157.16879193 103.9548597 153.74888372 100.87109375 150.15234375 C98.66920171 147.61947838 96.39804174 145.15667478 94.125 142.6875 C89.98074035 138.1482504 86.07421602 133.46541704 82.21484375 128.68359375 C80.04367173 126.05291443 77.79758643 123.52057576 75.5 121 C71.6168765 116.73327504 67.9437208 112.33290955 64.31640625 107.84765625 C61.17946554 103.99128225 57.96574403 100.20093784 54.75 96.41015625 C52.16932711 93.28346534 49.75383618 90.03398117 47.328125 86.78686523 C46.91127441 86.22990715 46.49442383 85.67294907 46.06494141 85.09911346 C45.04273227 83.7331627 44.02128926 82.36663867 43 81 C42.98969254 82.20458359 42.97938507 83.40916718 42.96876526 84.6502533 C42.86978285 96.16275173 42.76696513 107.6752108 42.66066074 119.187644 C42.60616236 125.10221375 42.55288405 131.01678855 42.50268555 136.93139648 C42.27798259 163.3026658 41.92932688 189.64304029 41 216 C27.14 215.67 13.28 215.34 -1 215 C-1.02262432 189.62526235 -1.04102415 164.25053293 -1.05181217 138.87578773 C-1.05695567 127.09231834 -1.06396107 115.30885569 -1.07543945 103.52539062 C-1.08544598 93.24795539 -1.09186757 82.97052504 -1.09408849 72.69308507 C-1.09538551 67.25762984 -1.09840689 61.82218856 -1.10573006 56.38673782 C-1.1125847 51.25682763 -1.11459801 46.12693697 -1.11310768 40.99702263 C-1.11337981 39.12756557 -1.11532834 37.25810777 -1.11920547 35.38865471 C-1.14251457 23.55589398 -0.78508994 11.80746465 0 0 Z " fill="#F9F9F9" transform="translate(1110,569)"/>
<path d="M0 0 C92.5745852 -0.31404872 92.5745852 -0.31404872 116 7 C117.11890625 7.34804688 118.2378125 7.69609375 119.390625 8.0546875 C147.00749357 17.72726224 168.13941903 38.1854506 180.8125 64.3125 C191.99703419 89.05241033 191.05888903 118.78994272 181.93017578 144.07641602 C171.71350592 170.53832982 147.23302401 191.22926985 122 203 C103.52333014 210.93023087 84.82610804 211.12872816 65.06176758 211.50268555 C62.02346104 211.56085427 58.98539432 211.62661731 55.94726562 211.69335938 C43.00964361 211.95944324 30.07867356 212.02406837 17.13891602 212.01147461 C15.46732844 212.01055103 13.7957408 212.00971382 12.12415314 212.00896454 C8.08276749 212.00696893 4.04138432 212.00381538 0 212 C-0.15384161 184.94928255 -0.30187656 157.89853874 -0.4429636 130.84775162 C-0.50860597 118.28813266 -0.57616178 105.72852939 -0.64819336 93.16894531 C-0.71095765 82.2243847 -0.77016114 71.27981167 -0.82505554 60.33520865 C-0.85425754 54.53801129 -0.8852651 48.74083607 -0.92053413 42.94367218 C-0.95365454 37.49044122 -0.98202425 32.03720645 -1.00670624 26.58393097 C-1.01662361 24.57958018 -1.02829601 22.57523722 -1.04183006 20.57090759 C-1.06001257 17.83977152 -1.07194901 15.10867779 -1.08229065 12.37750244 C-1.08909444 11.57983656 -1.09589823 10.78217068 -1.10290819 9.96033311 C-1.11003585 6.46175962 -0.93989748 3.36530893 0 0 Z M40 40 C40.59655772 89.37751418 40.59655772 89.37751418 41.5 138.75 C41.52681351 140.05124817 41.52681351 140.05124817 41.5541687 141.37878418 C41.75445833 150.95440432 42.12829097 160.45774821 43 170 C54.49020471 170.26048323 65.90363278 169.89620524 77.375 169.1875 C79.24406006 169.08236084 79.24406006 169.08236084 81.15087891 168.97509766 C100.64809471 167.68079461 116.253697 162.16050422 130 148 C130.57105469 147.44957031 131.14210938 146.89914062 131.73046875 146.33203125 C143.36354524 134.22047346 145.47723744 116.61768663 145.35375977 100.6237793 C144.92821528 83.98514117 138.77885582 70.40470829 126.75390625 58.83984375 C109.39763979 44.04854277 90.39649154 42.50009593 68.5625 41.3125 C66.34694582 41.18265008 64.13145008 41.05179881 61.91601562 40.91992188 C57.87214228 40.68331054 53.82820438 40.44882086 49.78344727 40.2277832 C48.97802994 40.18353714 48.17261261 40.13929108 47.3427887 40.09370422 C44.89271828 39.99570907 42.45176368 39.98414182 40 40 Z " fill="#FBFBFB" transform="translate(576,571)"/>
<path d="M0 0 C0.62680664 0.21430664 1.25361328 0.42861328 1.89941406 0.64941406 C15.28787733 5.32550672 29.86476704 11.84091943 40 22 C40 22.66 40 23.32 40 24 C40.55042969 24.19851563 41.10085938 24.39703125 41.66796875 24.6015625 C44.95766714 26.57427946 47.0119657 29.37423358 49.3125 32.375 C50.04098145 33.32101074 50.04098145 33.32101074 50.78417969 34.28613281 C70.03524887 59.7026607 75.97941119 89.43874792 72.70263672 120.85058594 C68.95586695 146.84096463 52.9197982 168.65095738 32.28808594 184.29833984 C8.27014084 201.77959026 -17.91315834 207.73612384 -47.52734375 204.609375 C-74.90097228 200.20247505 -101.03505098 184.98552387 -118 163 C-132.81522842 141.58501178 -138.38555302 119.3436623 -138.31567383 93.68505859 C-138.31248542 91.23881532 -138.33617859 88.7937537 -138.36132812 86.34765625 C-138.41466243 73.95689554 -136.32596169 64.67929515 -130.4375 53.6875 C-129.99841309 52.86572266 -129.55932617 52.04394531 -129.10693359 51.19726562 C-116.00807001 27.28938617 -93.19888464 8.2837798 -66.97338867 0.50512695 C-45.80359634 -5.57163953 -21.15119813 -7.32331806 0 0 Z M-79 55 C-80.0828125 56.06734375 -80.0828125 56.06734375 -81.1875 57.15625 C-92.97329245 69.47776029 -95.35804051 82.81624975 -95.375 99.25 C-95.39949219 100.48363281 -95.42398438 101.71726562 -95.44921875 102.98828125 C-95.50184905 119.67208504 -89.75256579 132.4989196 -78.1875 144.3125 C-63.94365234 158.2559657 -47.14283849 161.28942687 -27.77661133 161.31689453 C-11.95501806 161.11355474 0.09509879 155.27537445 11.61328125 144.48046875 C24.33872744 131.2551687 30.54627141 115.15907426 30.42163086 96.92895508 C29.91406943 80.96003404 24.56854851 65.88882357 13.41015625 54.24609375 C1.04156093 42.71944495 -13.25121108 36.59959455 -30.0625 36.6875 C-31.73542114 36.69595947 -31.73542114 36.69595947 -33.44213867 36.70458984 C-51.76285728 36.97391414 -65.92299426 41.74627797 -79 55 Z " fill="#FAFAFA" transform="translate(966,578)"/>
<path d="M0 0 C19.40991412 -0.02332763 38.81982541 -0.0409785 58.22975063 -0.05181217 C67.24146937 -0.05697542 76.25317942 -0.06401866 85.26489258 -0.07543945 C93.1165955 -0.08538541 100.96829214 -0.09185322 108.82000118 -0.09408849 C112.98003452 -0.09539575 117.14004985 -0.09848255 121.30007744 -0.10573006 C125.21108412 -0.11248889 129.12206527 -0.11461724 133.03307724 -0.11310768 C134.47267228 -0.11338407 135.91226813 -0.11539001 137.35185814 -0.11920547 C139.30894233 -0.12414051 141.26604004 -0.12239807 143.22312927 -0.12025452 C144.32098472 -0.12117631 145.41884016 -0.1220981 146.54996395 -0.12304783 C149 0 149 0 150 1 C150.08868299 3.95705321 150.11520296 6.89065056 150.09765625 9.84765625 C150.09553383 11.17729652 150.09553383 11.17729652 150.09336853 12.53379822 C150.08775215 15.37673254 150.07519691 18.21958931 150.0625 21.0625 C150.05748711 22.98502491 150.05292384 24.90755104 150.04882812 26.83007812 C150.03777741 31.55341549 150.02050183 36.27669458 150 41 C132.54530402 41.0808266 115.09541768 40.86701636 97.64282227 40.62768555 C93.61299272 40.57262069 89.58311809 40.52239077 85.55321217 40.47328281 C82.38449973 40.43382138 79.21584076 40.39088053 76.0471859 40.34705925 C74.56326601 40.32708845 73.07932933 40.30831734 71.59537697 40.29092598 C60.69412999 40.16135793 49.90118424 39.60562135 39 39 C39 53.52 39 68.04 39 83 C48.20777344 82.96519531 48.20777344 82.96519531 57.6015625 82.9296875 C61.49349382 82.91946685 65.38540856 82.90983879 69.27734375 82.90234375 C75.45299726 82.89039435 81.62859138 82.87626716 87.80419922 82.84912109 C92.78383408 82.82736947 97.76340524 82.81542644 102.74308395 82.81024551 C104.64165626 82.80655394 106.54022514 82.79934522 108.43877029 82.78853989 C111.10069528 82.77399421 113.76235799 82.77202335 116.42431641 82.77294922 C117.20690826 82.76575867 117.98950012 82.75856812 118.79580688 82.75115967 C123.52853959 82.76893868 126.33199946 83.44399982 131 85 C131 97.54 131 110.08 131 123 C100.64 123 70.28 123 39 123 C39 137.52 39 152.04 39 167 C42.41786865 166.99476318 45.8357373 166.98952637 49.35717773 166.98413086 C60.62088161 166.9675977 71.88458642 166.95647905 83.14829922 166.94818783 C89.98078974 166.94302507 96.81326879 166.93598277 103.64575195 166.92456055 C110.23335305 166.91355293 116.82094531 166.90772377 123.40855598 166.90512276 C125.92808279 166.903268 128.44760891 166.89964643 130.96713066 166.89426994 C134.48257765 166.88706324 137.99797461 166.8860089 141.51342773 166.88647461 C142.56646591 166.88287933 143.61950409 166.87928406 144.70445251 166.87557983 C146.13271362 166.87764183 146.13271362 166.87764183 147.58982849 166.87974548 C148.42220756 166.87882369 149.25458662 166.8779019 150.11218929 166.87695217 C152 167 152 167 153 168 C153.12197808 169.38050858 153.17768899 170.76697647 153.20532227 172.15258789 C153.22526749 173.03342545 153.24521271 173.914263 153.26576233 174.8217926 C153.28247482 175.77907761 153.29918732 176.73636261 153.31640625 177.72265625 C153.33718735 178.69786728 153.35796844 179.67307831 153.37937927 180.67784119 C153.44498412 183.8059863 153.50381028 186.93421822 153.5625 190.0625 C153.60567483 192.1777435 153.64928877 194.29297809 153.69335938 196.40820312 C153.80067655 201.60537587 153.9024222 206.80263577 154 212 C153.24351669 211.94235977 152.48703339 211.88471954 151.70762634 211.82533264 C127.0065689 210.00258792 102.36248248 209.61599467 77.60186768 209.45739746 C29.85523442 209.14482035 29.85523442 209.14482035 13.40234375 208.59765625 C12.3703334 208.56844589 11.33832306 208.53923553 10.27503967 208.50914001 C9.35146164 208.47268875 8.42788361 208.43623749 7.47631836 208.39868164 C6.69800156 208.37004532 5.91968475 208.341409 5.11778259 208.31190491 C2.7477341 207.96284653 1.1081609 207.1067796 -1 206 C-1.02348809 183.12761021 -1.0410566 160.25522245 -1.05181217 137.38282299 C-1.05694163 126.75984987 -1.06391948 116.13688429 -1.07543945 105.51391602 C-1.08548971 96.24170673 -1.09187771 86.96950292 -1.09408849 77.69728833 C-1.09537827 72.79977923 -1.09835168 67.90228576 -1.10573006 63.00478172 C-1.13622238 41.97822196 -1.04431847 21.00618387 0 0 Z " fill="#F9F9F9" transform="translate(1375,573)"/>
<path d="M0 0 C3.96794067 2.78553787 5.60624696 5.90858464 7.13671875 10.5 C7.68741362 16.22722665 6.6499897 20.02125001 3.13671875 24.5 C-0.0818285 27.9573602 -3.45383424 31.2323944 -6.86328125 34.5 C-8.53194099 36.16467121 -10.19836991 37.83157986 -11.86328125 39.5 C-13.54621178 41.17831721 -15.2294982 42.85627761 -16.91308594 44.53393555 C-21.74037442 49.34496985 -26.56518744 54.15847834 -31.38854599 58.97345257 C-34.30019899 61.87986163 -37.21279168 64.78531663 -40.12744141 67.6887207 C-42.95586732 70.50630822 -45.78186693 73.32630812 -48.60617828 76.14801979 C-49.68182822 77.2218205 -50.75835866 78.29473992 -51.83577728 79.36676598 C-53.33652501 80.86028852 -54.83414844 82.35687676 -56.33105469 83.85424805 C-57.18423279 84.70520554 -58.03741089 85.55616302 -58.91644287 86.4329071 C-60.90714711 88.34800103 -60.90714711 88.34800103 -61.86328125 90.5 C-62.52328125 90.5 -63.18328125 90.5 -63.86328125 90.5 C-64.07597656 91.04140625 -64.28867188 91.5828125 -64.5078125 92.140625 C-66.35301307 95.35244386 -68.90115871 97.70792672 -71.55078125 100.25 C-74.86832153 103.45314234 -78.06301463 106.68554448 -81.06201172 110.19213867 C-84.84480137 114.53693977 -88.84375483 118.62500607 -92.921875 122.69140625 C-93.66985855 123.44034653 -94.4178421 124.1892868 -95.18849182 124.96092224 C-96.75960589 126.53271225 -98.33196517 128.10325849 -99.90551758 129.67260742 C-102.29427971 132.05601304 -104.67765571 134.44471068 -107.06054688 136.83398438 C-108.59733575 138.37011237 -110.13443485 139.90593009 -111.671875 141.44140625 C-112.37420761 142.14576309 -113.07654022 142.85011993 -113.80015564 143.57582092 C-117.7500948 147.50738322 -121.8075693 151.24194593 -126.02607727 154.88294983 C-128.60068525 157.14904022 -130.98599267 159.54562209 -133.38671875 161.99609375 C-134.35404366 162.97603289 -135.32149493 163.95584733 -136.2890625 164.93554688 C-137.77872931 166.45024802 -139.26670442 167.96655103 -140.75244141 169.48510742 C-142.20956568 170.97224382 -143.67269882 172.45325005 -145.13671875 173.93359375 C-145.99700684 174.81072021 -146.85729492 175.68784668 -147.74365234 176.59155273 C-149.86328125 178.5 -149.86328125 178.5 -151.86328125 178.5 C-151.86328125 179.16 -151.86328125 179.82 -151.86328125 180.5 C-153.0859375 181.69921875 -153.0859375 181.69921875 -154.92578125 183.1875 C-160.19967438 187.63467475 -164.95983136 192.57240197 -169.75805664 197.52026367 C-170.38832764 198.1619751 -171.01859863 198.80368652 -171.66796875 199.46484375 C-172.23499512 200.0487085 -172.80202148 200.63257324 -173.38623047 201.23413086 C-174.86328125 202.5 -174.86328125 202.5 -176.86328125 202.5 C-176.86328125 203.16 -176.86328125 203.82 -176.86328125 204.5 C-178.27270508 205.88818359 -178.27270508 205.88818359 -180.2578125 207.5234375 C-185.28769019 211.80385569 -189.90549327 216.43448424 -194.55078125 221.125 C-195.45272217 222.03072754 -196.35466309 222.93645508 -197.28393555 223.86962891 C-200.14616689 226.74399569 -203.00523927 229.6214694 -205.86328125 232.5 C-209.63102458 236.29475338 -213.4024367 240.08581381 -217.17578125 243.875 C-218.02809326 244.73561035 -218.88040527 245.5962207 -219.75854492 246.48291016 C-226.04934396 252.79922337 -232.54987631 258.78683196 -239.55078125 264.3125 C-240.25589844 264.87582031 -240.96101563 265.43914062 -241.6875 266.01953125 C-246.49038967 269.28756569 -251.10375963 270.22560902 -256.86328125 269.5 C-262.86719472 267.26324792 -266.554125 263.76920417 -269.73828125 258.25 C-271.47950265 252.44592868 -271.25052807 248.3032236 -268.54296875 242.83203125 C-264.41087558 236.01888227 -259.29676182 230.28930142 -253.86328125 224.5 C-252.58529459 223.0688558 -251.31387342 221.63180668 -250.05078125 220.1875 C-249.49390625 219.55199219 -248.93703125 218.91648437 -248.36328125 218.26171875 C-247.04511677 216.71356202 -245.79213258 215.11040173 -244.55078125 213.5 C-243.99390625 212.84 -243.43703125 212.18 -242.86328125 211.5 C-242.20328125 211.5 -241.54328125 211.5 -240.86328125 211.5 C-240.63511719 210.94731445 -240.40695312 210.39462891 -240.171875 209.82519531 C-238.48482607 206.82753597 -236.35515607 204.7323494 -233.92578125 202.296875 C-233.4450415 201.8142218 -232.96430176 201.3315686 -232.46899414 200.83428955 C-231.45607032 199.82000936 -230.44063487 198.80823196 -229.42285156 197.79882812 C-227.8615496 196.24828028 -226.31125628 194.68729497 -224.76171875 193.125 C-223.77538064 192.13998266 -222.78842275 191.15558547 -221.80078125 190.171875 C-220.90230469 189.2756543 -220.00382812 188.37943359 -219.078125 187.45605469 C-216.86328125 185.5 -216.86328125 185.5 -214.86328125 185.5 C-214.86328125 184.84 -214.86328125 184.18 -214.86328125 183.5 C-213.55273438 182.21289063 -213.55273438 182.21289063 -211.64453125 180.65625 C-207.88389378 177.45838399 -204.36881666 174.09452366 -200.89453125 170.59375 C-200.36577393 170.06168945 -199.8370166 169.52962891 -199.29223633 168.98144531 C-197.64726918 167.32291193 -196.00484198 165.66190465 -194.36328125 164 C-192.18925352 161.79902946 -190.01169059 159.60164212 -187.83203125 157.40625 C-187.35157349 156.9174939 -186.87111572 156.42873779 -186.37609863 155.9251709 C-183.78421338 153.31522679 -181.12892817 150.8507919 -178.32763672 148.46655273 C-172.71852874 143.60467943 -167.55793933 138.28894333 -162.33720779 133.01852608 C-160.43172959 131.09548691 -158.52258204 129.17615972 -156.61239624 127.25779724 C-151.1879608 121.80903822 -145.76939106 116.35447215 -140.35498047 110.89575195 C-137.03022136 107.54429427 -133.70067463 104.19765615 -130.36808395 100.85398674 C-129.10067429 99.58035717 -127.83516678 98.30483186 -126.57158279 97.02740669 C-124.81473633 95.2514585 -123.05192127 93.48165028 -121.28759766 91.71313477 C-120.76501373 91.18178925 -120.24242981 90.65044373 -119.70401001 90.10299683 C-116.09118086 86.5 -116.09118086 86.5 -113.86328125 86.5 C-113.52296875 85.63375 -113.52296875 85.63375 -113.17578125 84.75 C-111.52241195 81.91565264 -109.43364181 80.53237811 -106.86328125 78.5 C-105.66368582 77.04103259 -104.46517613 75.58108625 -103.28125 74.109375 C-101.7524251 72.3741798 -100.12785581 70.93202437 -98.36328125 69.4375 C-92.76059304 64.66721118 -87.66121677 59.38410421 -82.49731445 54.14990234 C-80.29400939 51.92519958 -78.07823045 49.71310801 -75.86328125 47.5 C-75.00541016 46.64212891 -74.14753906 45.78425781 -73.26367188 44.90039062 C-63.06347656 34.70019531 -63.06347656 34.70019531 -52.86328125 24.5 C-51.5469873 23.17802612 -51.5469873 23.17802612 -50.20410156 21.8293457 C-46.05137375 17.6969744 -41.68497816 13.79598959 -37.34716797 9.86035156 C-36.01555816 8.63959969 -34.70550394 7.39543274 -33.3984375 6.1484375 C-23.28557883 -3.34236484 -12.76291703 -7.05266373 0 0 Z " fill="#F9F9F9" transform="translate(1301.86328125,291.5)"/>
<path d="M0 0 C6.64623901 3.27717776 9.26022306 8.32037854 12 15 C13.66884586 20.00653758 14.46011418 23.80984625 13 29 C9.18424 34.67681159 3.92669837 39.30577002 -1 44 C-2.64942554 45.64223327 -4.2959471 47.28739734 -5.9375 48.9375 C-6.56527344 49.54464844 -7.19304687 50.15179687 -7.83984375 50.77734375 C-9.67226722 52.6627849 -11.373004 54.58593635 -13.08154297 56.58154297 C-17.14139631 61.23302284 -21.46818111 65.57720632 -25.85546875 69.91796875 C-27.09155632 71.14837639 -27.09155632 71.14837639 -28.35261536 72.40364075 C-30.9618139 75.00071808 -33.57423948 77.5945104 -36.1875 80.1875 C-39.6422234 83.61558762 -43.09359434 87.04699992 -46.54296875 90.48046875 C-47.33156784 91.2607695 -48.12016693 92.04107025 -48.93266296 92.84501648 C-52.52313553 96.41941607 -55.92254764 99.96290696 -59 104 C-62.19893219 107.37184744 -65.58547857 110.41058599 -69.15625 113.375 C-71.54343478 115.47895947 -73.75858926 117.74356857 -76 120 C-77.09544103 121.10076657 -78.19090117 122.20151411 -79.28637695 123.30224609 C-79.88082108 123.89991791 -80.4752652 124.49758972 -81.08772278 125.1133728 C-83.78407398 127.82321063 -86.48316964 130.53030822 -89.18237305 133.23730469 C-90.59799159 134.65795294 -92.01271144 136.0794973 -93.42651367 137.50195312 C-95.48635431 139.57403614 -97.54950788 141.64277229 -99.61328125 143.7109375 C-100.23439285 144.33721039 -100.85550446 144.96348328 -101.49543762 145.60873413 C-105.25855464 149.37232181 -109.13824946 152.94446212 -113.17132568 156.4175415 C-122.13348902 164.17302393 -130.60810668 172.51350208 -139 180.875 C-139.69343506 181.56384277 -140.38687012 182.25268555 -141.10131836 182.96240234 C-144.31575745 186.18653633 -147.42803109 189.44796357 -150.39453125 192.90234375 C-154.57541033 197.74860528 -159.12880805 202.1996502 -163.6875 206.6875 C-165.36045904 208.33481982 -167.03111173 209.98448586 -168.69921875 211.63671875 C-169.42971436 212.35561279 -170.16020996 213.07450684 -170.9128418 213.81518555 C-173.09912134 216.10375914 -175.0379774 218.51852686 -177 221 C-178.1976143 222.11811528 -179.42687366 223.20344229 -180.6875 224.25 C-183.70908747 226.8161276 -186.46119862 229.49835112 -189.1875 232.375 C-196.64261148 239.93383477 -206.41848669 248.21870194 -217.4375 248.375 C-222.42471197 248.27445137 -225.2068992 247.42304219 -229 244 C-233.59896472 238.9038499 -234.48710616 234.82264717 -234.3984375 228.1015625 C-232.08323423 210.07929393 -212.10027843 195.64059478 -198.65234375 185.11328125 C-189.6645951 177.95220316 -181.11370934 170.26829084 -172.68359375 162.46484375 C-170.3830635 160.35183852 -168.05340817 158.28894966 -165.6875 156.25 C-161.04293178 152.22213794 -156.79029725 147.83505468 -152.5 143.4375 C-150.58601109 141.57136081 -148.67890214 139.88539243 -146.625 138.1875 C-144.20972453 136.14281519 -142.11909958 134.05328474 -140.09375 131.625 C-134.6865272 125.36962756 -128.73947427 119.63393673 -122.875 113.8125 C-121.69637945 112.63890797 -120.51799238 111.4650814 -119.33984375 110.29101562 C-117.1757538 108.13502325 -115.01032396 105.98039723 -112.84326172 103.82739258 C-111.01801992 102.01365142 -109.19646634 100.19646634 -107.37695312 98.37695312 C-105.27009769 96.27009769 -103.15639018 94.17053803 -101.0390625 92.07421875 C-99.56765116 90.6120367 -98.0962984 89.1497957 -96.625 87.6875 C-95.89539063 86.96626953 -95.16578125 86.24503906 -94.4140625 85.50195312 C-93.6921875 84.78330078 -92.9703125 84.06464844 -92.2265625 83.32421875 C-91.58283691 82.68572998 -90.93911133 82.04724121 -90.27587891 81.3894043 C-88.35117032 79.36868739 -86.52355594 77.30979189 -84.70068359 75.19848633 C-81.15389326 71.12035459 -77.40762433 67.29541329 -73.5625 63.5 C-72.87873291 62.82001953 -72.19496582 62.14003906 -71.49047852 61.43945312 C-68.60262227 58.56774857 -65.70876925 55.70211562 -62.81542969 52.8359375 C-60.68734275 50.72607213 -58.56237083 48.61310355 -56.4375 46.5 C-55.79562744 45.86642578 -55.15375488 45.23285156 -54.49243164 44.58007812 C-50.66448272 40.77260486 -47.04088826 36.84620677 -43.52536011 32.74801636 C-41.4994878 30.42642822 -39.33339123 28.27225929 -37.125 26.125 C-34.1723451 23.34607083 -34.1723451 23.34607083 -32 20 C-31.34 20 -30.68 20 -30 20 C-29.63068359 19.14535156 -29.63068359 19.14535156 -29.25390625 18.2734375 C-24.66650703 9.95609686 -10.3120129 -3.68286175 0 0 Z " fill="#FAFAFA" transform="translate(843,803)"/>
<path d="M0 0 C7.61738778 2.61167581 11.95393465 8.04602516 17 14 C18.2065625 15.37478516 18.2065625 15.37478516 19.4375 16.77734375 C36.19854314 35.98963119 49.63285667 57.68819447 62.5 79.625 C63.06323975 80.5835791 63.62647949 81.5421582 64.20678711 82.52978516 C77.55912941 105.54639549 77.55912941 105.54639549 76 117 C72.7489183 125.12770424 67.11670489 130.25553007 60 135 C50.68876253 136.47182622 43.96828247 133.46553037 36.46875 128.234375 C33.60032285 125.63826689 31.77062947 122.82277587 29.875 119.5 C29.49593506 118.85417969 29.11687012 118.20835937 28.72631836 117.54296875 C26.04342472 112.93162658 23.49332146 108.25086197 20.95141602 103.56079102 C10.43391802 84.1693274 -1.93088367 67.07958185 -17 51 C-18.65113851 49.19233154 -20.29733226 47.38012851 -21.9375 45.5625 C-22.62714844 44.80066406 -23.31679687 44.03882813 -24.02734375 43.25390625 C-24.67832031 42.51011719 -25.32929687 41.76632812 -26 41 C-26.76441406 40.18402344 -27.52882813 39.36804688 -28.31640625 38.52734375 C-30 36 -30 36 -30.0078125 33.45703125 C-28.77236669 30.44503352 -27.25926292 28.89799461 -24.875 26.6875 C-21.91710465 23.86511644 -19.08990267 21.04932576 -16.4375 17.9375 C-13.4132194 14.40800315 -10.17800558 11.15772534 -6.8671875 7.8984375 C-4.40070885 5.39067887 -2.19640856 2.74551069 0 0 Z " fill="#F9F9F9" transform="translate(1289,387)"/>
<path d="M0 0 C8.66821066 7.08082229 15.59372875 15.21979287 17.875 26.375 C18.82908703 36.61970495 17.26837345 47.08806346 11.1875 55.625 C10.11161686 56.89942516 9.00531586 58.14859465 7.875 59.375 C7.22660156 60.11363281 6.57820313 60.85226562 5.91015625 61.61328125 C-0.73436426 68.76244889 -9.68385116 75.95160552 -19.75 76.61328125 C-31.3302968 76.91266845 -40.20436626 76.01822798 -49.375 68.25 C-59.39899976 58.54422246 -66.28805512 46.58572753 -67.4375 32.5625 C-67.11122857 21.49102295 -62.5922916 10.85679277 -54.59765625 3.265625 C-49.89666613 -0.32881294 -44.61713053 -2.50889394 -39.125 -4.625 C-38.44824219 -4.893125 -37.77148438 -5.16125 -37.07421875 -5.4375 C-24.85733216 -9.33823541 -10.42954413 -7.19843046 0 0 Z " fill="#FAFAFA" transform="translate(456.125,639.625)"/>
<path d="M0 0 C0.63679687 0.51046875 1.27359375 1.0209375 1.9296875 1.546875 C2.58710937 2.05734375 3.24453125 2.5678125 3.921875 3.09375 C10.86232148 9.197022 14.1131929 17.33295141 17.9296875 25.546875 C26.31978789 43.33033197 37.34219173 58.70771431 48.9296875 74.546875 C46.70170192 78.66864832 44.04351868 81.61299603 40.6796875 84.859375 C33.11097297 92.27157253 26.48731404 100.23487045 19.9296875 108.546875 C2.05083904 102.50462985 -10.4777089 72.10384024 -19.0703125 56.546875 C-19.73571045 55.35167236 -19.73571045 55.35167236 -20.41455078 54.13232422 C-36.74542907 24.63730193 -36.74542907 24.63730193 -34.73046875 11.296875 C-32.60707771 5.07936399 -28.36363711 1.27444308 -23.0703125 -2.453125 C-15.30743783 -5.98170439 -6.87810247 -4.91687646 0 0 Z " fill="#F8F8F8" transform="translate(616.0703125,836.453125)"/>
<path d="M0 0 C8.02558915 6.62111105 13.82739268 15.3006101 14.90234375 25.8125 C15.10407376 37.76203646 13.22879521 47.28772757 5.21875 56.68359375 C-4.69072126 66.7395104 -16.20279833 70.50462529 -30.21875 70.62109375 C-31.38821167 70.63619995 -31.38821167 70.63619995 -32.58129883 70.65161133 C-42.62864464 70.50184119 -50.50934783 66.9408525 -57.90625 60.18359375 C-65.44068602 52.39800986 -69.88763932 43.15692192 -70.78125 32.43359375 C-70.32910081 18.0495975 -63.60290352 6.9209778 -53.46875 -2.81640625 C-37.36942458 -16.0730664 -15.92211723 -11.71484891 0 0 Z M-51.55078125 10.83984375 C-57.57011217 18.19544161 -58.35215058 27.15915597 -57.91015625 36.3671875 C-57.05742972 43.73987618 -54.43233142 48.93870822 -48.65625 53.62109375 C-41.87022859 58.04894136 -36.46263743 59.44260828 -28.40625 59.55859375 C-27.39691406 59.57962158 -27.39691406 59.57962158 -26.3671875 59.60107422 C-21.32283782 59.55295053 -17.90649835 58.3649577 -13.46875 56.18359375 C-14.91413223 53.15451521 -16.59809592 50.38354695 -18.40625 47.55859375 C-23.16116296 39.62986359 -25.69193704 31.48973302 -24.46875 22.18359375 C-23.20899675 19.16018595 -22.27896593 17.77030184 -19.65625 15.87109375 C-16.86188203 14.99286382 -14.37895204 15.05131184 -11.46875 15.18359375 C-9.63520331 18.95854282 -9.19647809 21.15473271 -10.46875 25.18359375 C-11.12875 26.17359375 -11.78875 27.16359375 -12.46875 28.18359375 C-13.10495219 36.07250091 -12.04533938 45.03041499 -8.46875 52.18359375 C-4.64262297 50.68047242 -2.76783033 48.55557824 -0.46875 45.18359375 C3.01561563 37.1145365 3.37354065 28.48881917 0.53125 20.18359375 C-3.72102324 11.665505 -9.63940069 6.77497058 -18.56640625 3.7421875 C-30.66933152 0.18835113 -42.39706974 1.89674861 -51.55078125 10.83984375 Z " fill="#ECECEC" transform="translate(1607.46875,495.81640625)"/>
<path d="M0 0 C28.215 1.485 28.215 1.485 57 3 C59.69230769 40.69230769 59.69230769 40.69230769 54.453125 46.8046875 C50.86055829 48.55520567 47.40730014 48.39889735 43.5 48.3125 C42.25923706 48.29775635 42.25923706 48.29775635 40.9934082 48.28271484 C34.70225188 48.15624162 28.45025697 47.72320047 22.1875 47.125 C21.35863281 47.04677002 20.52976562 46.96854004 19.67578125 46.88793945 C10.60224649 45.91643906 10.60224649 45.91643906 7 44 C5.64453125 40.97265625 5.64453125 40.97265625 4.8125 37.0625 C4.65942383 36.3624585 4.50634766 35.66241699 4.34863281 34.94116211 C3.86083172 32.63323416 3.42375747 30.32050913 3 28 C2.84901855 27.1853125 2.69803711 26.370625 2.54248047 25.53125 C2.09224875 23.04453328 1.66429544 20.55544551 1.25 18.0625 C1.05821167 16.91116577 1.05821167 16.91116577 0.86254883 15.73657227 C0.74806396 14.98947998 0.6335791 14.2423877 0.515625 13.47265625 C0.41540039 12.82562744 0.31517578 12.17859863 0.21191406 11.51196289 C-0.11071858 7.68757665 0 3.83797107 0 0 Z " fill="#F6F6F6" transform="translate(474,739)"/>
<path d="M0 0 C1.97956441 0.14033111 3.95865141 0.2874123 5.9375 0.4375 C7.03964844 0.51871094 8.14179687 0.59992188 9.27734375 0.68359375 C12 1 12 1 13 2 C13.11341559 4.5351719 13.16417921 7.0420479 13.16796875 9.578125 C13.17129715 10.34171326 13.17462555 11.10530151 13.17805481 11.89202881 C13.18312893 13.51281124 13.18546299 15.13360416 13.18530273 16.75439453 C13.18747866 19.22576381 13.20559946 21.69667917 13.22460938 24.16796875 C13.22754538 25.74218597 13.22952879 27.31640532 13.23046875 28.890625 C13.23765427 29.62726379 13.24483978 30.36390259 13.25224304 31.12286377 C13.23349388 35.37115926 13.18672364 39.81327636 10 43 C8.1875 43.1328125 8.1875 43.1328125 6 43.125 C5.278125 43.12757813 4.55625 43.13015625 3.8125 43.1328125 C2 43 2 43 1 42 C-0.37974658 33.36452318 -0.1118799 24.65538116 -0.0625 15.9375 C-0.05747503 14.38867332 -0.05291388 12.83984507 -0.04882812 11.29101562 C-0.03790138 7.52730424 -0.02069175 3.76366985 0 0 Z " fill="#EAEAEA" transform="translate(1565,505)"/>
<path d="M0 0 C0 3 0 3 -1.84838867 5.18896484 C-2.6963501 6.02121582 -3.54431152 6.8534668 -4.41796875 7.7109375 C-5.34287109 8.62617188 -6.26777344 9.54140625 -7.22070312 10.484375 C-8.20944693 11.44811008 -9.19838086 12.41165014 -10.1875 13.375 C-11.1575869 14.33003299 -12.12699604 15.28575496 -13.09570312 16.2421875 C-14.895307 18.01563797 -16.69797121 19.78599205 -18.50463867 21.55224609 C-21.01939924 24.01902914 -23.51228428 26.50595601 -26 29 C-27.03525823 30.03554253 -28.07066796 31.07093362 -29.10620117 32.10620117 C-29.65994919 32.65994919 -30.2136972 33.2136972 -30.78422546 33.78422546 C-56.25 59.25 -56.25 59.25 -60 62 C-60.66 61.67 -61.32 61.34 -62 61 C-60.71451591 59.66070495 -59.42141845 58.32871357 -58.125 57 C-57.40570312 56.2575 -56.68640625 55.515 -55.9453125 54.75 C-54 53 -54 53 -52 53 C-51.773125 52.4225 -51.54625 51.845 -51.3125 51.25 C-49.6591307 48.41565264 -47.57036056 47.03237811 -45 45 C-43.80040457 43.54103259 -42.60189488 42.08108625 -41.41796875 40.609375 C-39.88914385 38.8741798 -38.26457456 37.43202437 -36.5 35.9375 C-30.83977162 31.11821984 -25.69470555 25.77386646 -20.47387695 20.48999023 C-18.32496403 18.31758414 -16.16233548 16.15903924 -14 14 C-12.81632128 12.81649123 -11.63273442 11.63289058 -10.44921875 10.44921875 C-6.96614583 6.96614583 -3.48307292 3.48307292 0 0 Z " fill="#C6C6C6" transform="translate(1240,325)"/>
<path d="M0 0 C0.66 0.66 1.32 1.32 2 2 C-5.56246519 10.81008001 -5.56246519 10.81008001 -9.5 13.9375 C-10.325 14.618125 -11.15 15.29875 -12 16 C-12 16.66 -12 17.32 -12 18 C-14.25 20.6875 -14.25 20.6875 -17 23 C-19.171875 22.64453125 -19.171875 22.64453125 -21 22 C-20.14535156 21.15695312 -19.29070313 20.31390625 -18.41015625 19.4453125 C-17.29413953 18.33867407 -16.17826128 17.23189598 -15.0625 16.125 C-14.49853516 15.56941406 -13.93457031 15.01382813 -13.35351562 14.44140625 C-10.30139972 11.5078429 -10.30139972 11.5078429 -8 8 C-7.34 8 -6.68 8 -6 8 C-5.7525 7.4225 -5.505 6.845 -5.25 6.25 C-3.83316683 3.6997003 -2.12372463 1.98214299 0 0 Z " fill="#C7C7C7" transform="translate(819,815)"/>
<path d="M0 0 C0.66 0.33 1.32 0.66 2 1 C-1.19265366 4.26687486 -4.39508592 7.52372224 -7.60693359 10.77172852 C-8.69788784 11.87775836 -9.786133 12.98646726 -10.87158203 14.09790039 C-12.43335749 15.69611251 -14.0046602 17.28439904 -15.578125 18.87109375 C-16.06057678 19.36902939 -16.54302856 19.86696503 -17.0401001 20.37998962 C-19.54639461 22.88751825 -21.39611458 24.61069139 -25 25 C-20.72129599 19.62105781 -15.92809799 15.04207789 -10.84692383 10.44042969 C-7.11905826 7.06192924 -3.53379407 3.58169188 0 0 Z " fill="#BDBDBD" transform="translate(1272,294)"/>
<path d="M0 0 C0 3.63787651 -0.67888836 4.13064655 -3.0625 6.75 C-4.01769531 7.80380859 -4.01769531 7.80380859 -4.9921875 8.87890625 C-7.41557675 11.43902368 -9.90686381 13.92092933 -12.421875 16.390625 C-14.45508542 18.46409701 -16.2475974 20.68682856 -18 23 C-18 19 -18 19 -16.49609375 17.140625 C-15.81675781 16.51671875 -15.13742187 15.8928125 -14.4375 15.25 C-10.91684968 11.91037602 -7.69297589 8.45044445 -4.54296875 4.76171875 C-3.08919634 3.10184189 -1.57858414 1.54066019 0 0 Z " fill="#B0B0B0" transform="translate(1279,398)"/>
<path d="M0 0 C0.33 0.99 0.66 1.98 1 3 C-4.94 8.94 -10.88 14.88 -17 21 C-17.66 20.67 -18.32 20.34 -19 20 C-18.13117187 19.14277344 -17.26234375 18.28554688 -16.3671875 17.40234375 C-7.87037258 8.99175314 -7.87037258 8.99175314 0 0 Z " fill="#C5C5C5" transform="translate(761,875)"/>
<path d="M0 0 C0.33 0.99 0.66 1.98 1 3 C-3.62 7.62 -8.24 12.24 -13 17 C-13.66 16.67 -14.32 16.34 -15 16 C-11.83569856 12.11242966 -8.59418129 8.50432676 -5 5 C-3.6078125 3.6078125 -3.6078125 3.6078125 -2.1875 2.1875 C-1.1046875 1.1046875 -1.1046875 1.1046875 0 0 Z " fill="#C7C7C7" transform="translate(706,931)"/>
<path d="M0 0 C0 3 0 3 -1.25 4.61328125 C-5.57281809 8.81066042 -10.08470289 12.51460751 -15 16 C-15 13 -15 13 -13.73071289 11.57373047 C-13.1505542 11.09307129 -12.57039551 10.61241211 -11.97265625 10.1171875 C-11.34552734 9.58996094 -10.71839844 9.06273437 -10.07226562 8.51953125 C-9.07743164 7.70548828 -9.07743164 7.70548828 -8.0625 6.875 C-6.76169621 5.7890895 -5.46091385 4.70315333 -4.16015625 3.6171875 C-3.57886963 3.13878418 -2.99758301 2.66038086 -2.39868164 2.16748047 C-1.03376326 1.06367414 -1.03376326 1.06367414 0 0 Z " fill="#A7A7A7" transform="translate(655,979)"/>
<path d="M0 0 C0.33 0.66 0.66 1.32 1 2 C-0.13432192 5.40296577 -1.62524294 6.48760174 -4.37890625 8.66015625 C-6.25758931 10.15962261 -6.25758931 10.15962261 -8.6875 12.8125 C-11 15 -11 15 -14 15 C-13.50628906 14.51789063 -13.01257812 14.03578125 -12.50390625 13.5390625 C-11.86324219 12.90742188 -11.22257812 12.27578125 -10.5625 11.625 C-9.92441406 10.99851562 -9.28632812 10.37203125 -8.62890625 9.7265625 C-6.92117824 8.08276939 -6.92117824 8.08276939 -6 6 C-5.34 6 -4.68 6 -4 6 C-3.566875 5.071875 -3.566875 5.071875 -3.125 4.125 C-2 2 -2 2 0 0 Z " fill="#C1C1C1" transform="translate(1065,497)"/>
<path d="M0 0 C0 3.7226489 -0.98537259 4.67462429 -3.25 7.5625 C-4.15492187 8.74005859 -4.15492187 8.74005859 -5.078125 9.94140625 C-7.00392932 12.00420884 -8.37208036 13.02766973 -11 14 C-11.99 14 -12.98 14 -14 14 C-12.71451591 12.66070495 -11.42141845 11.32871357 -10.125 10 C-9.40570312 9.2575 -8.68640625 8.515 -7.9453125 7.75 C-6 6 -6 6 -4 6 C-3.566875 5.071875 -3.566875 5.071875 -3.125 4.125 C-2 2 -2 2 0 0 Z " fill="#9A9A9A" transform="translate(1192,372)"/>
<path d="M0 0 C0.66 0.33 1.32 0.66 2 1 C-8.37357631 11.55808656 -8.37357631 11.55808656 -14 16 C-14.66 15.67 -15.32 15.34 -16 15 C-11.70328082 10.5824356 -7.27195049 6.40403459 -2.6015625 2.3828125 C-1.71147181 1.61429517 -0.83152881 0.83152881 0 0 Z " fill="#ACACAC" transform="translate(679,350)"/>
<path d="M0 0 C0 4.70738527 -2.81825891 7.68210332 -6 11 C-9.375 12.5 -9.375 12.5 -12 13 C-8.19524578 8.43969176 -4.25030379 4.14910608 0 0 Z " fill="#9F9F9F" transform="translate(774,862)"/>
<path d="M0 0 C0.66 0.33 1.32 0.66 2 1 C2 3 2 3 -0.1875 5.5625 C-3.01309018 8.01134483 -4.35558268 8.68762137 -8 9 C-7.04270084 7.87411986 -6.08412105 6.7493285 -5.125 5.625 C-4.59132813 4.99851562 -4.05765625 4.37203125 -3.5078125 3.7265625 C-2.38567993 2.44163349 -1.20628025 1.20628025 0 0 Z " fill="#C4C4C4" transform="translate(707,717)"/>
<path d="M0 0 C0 3.99282941 -1.47808076 5.15331592 -4 8.1875 C-4.7425 9.08855469 -5.485 9.98960937 -6.25 10.91796875 C-6.8275 11.60503906 -7.405 12.29210937 -8 13 C-8.66 12.67 -9.32 12.34 -10 12 C-8.89847594 10.56047403 -7.7936696 9.12345929 -6.6875 7.6875 C-6.07261719 6.88699219 -5.45773437 6.08648438 -4.82421875 5.26171875 C-3.30083693 3.37298626 -1.75565593 1.66922364 0 0 Z " fill="#B1B1B1" transform="translate(855,605)"/>
<path d="M0 0 C0.66 0.33 1.32 0.66 2 1 C0.625 3 0.625 3 -1 5 C-1.66 5 -2.32 5 -3 5 C-3 5.66 -3 6.32 -3 7 C-4.65 7.66 -6.3 8.32 -8 9 C-5.68462045 5.27885429 -3.71420527 2.38770339 0 0 Z " fill="#B2B2B2" transform="translate(1325,837)"/>
<path d="M0 0 C0.66 0.33 1.32 0.66 2 1 C1.04270084 2.12588014 0.08412105 3.2506715 -0.875 4.375 C-1.40867187 5.00148438 -1.94234375 5.62796875 -2.4921875 6.2734375 C-3.61432007 7.55836651 -4.79371975 8.79371975 -6 10 C-6 6 -6 6 -4.6875 4.296875 C-4.130625 3.78640625 -3.57375 3.2759375 -3 2.75 C-2.1646875 1.96882813 -2.1646875 1.96882813 -1.3125 1.171875 C-0.879375 0.78515625 -0.44625 0.3984375 0 0 Z " fill="#C2C2C2" transform="translate(1267,411)"/>
<path d="M0 0 C0.66 0.33 1.32 0.66 2 1 C-0.75520215 3.95929119 -3.46627288 6.03681826 -7 8 C-7 7.01 -7 6.02 -7 5 C-5.46875 3.61328125 -5.46875 3.61328125 -3.5 2.3125 C-2.8503125 1.87550781 -2.200625 1.43851563 -1.53125 0.98828125 C-1.0259375 0.66214844 -0.520625 0.33601562 0 0 Z " fill="#BBBBBB" transform="translate(1207,972)"/>
<path d="M0 0 C0.33 0.99 0.66 1.98 1 3 C-0.40445835 5.2636564 -2.1967913 7.0208685 -4 9 C-4.66 8.67 -5.32 8.34 -6 8 C-4.02 5.36 -2.04 2.72 0 0 Z " fill="#BCBCBC" transform="translate(1301,870)"/>
<path d="M0 0 C1 3 1 3 1 6 C0.34 6 -0.32 6 -1 6 C-1.66 7.32 -2.32 8.64 -3 10 C-3.33 9.34 -3.66 8.68 -4 8 C-3.22265625 6.0546875 -3.22265625 6.0546875 -2.0625 3.875 C-1.49208984 2.78832031 -1.49208984 2.78832031 -0.91015625 1.6796875 C-0.60980469 1.12539063 -0.30945313 0.57109375 0 0 Z " fill="#BEBEBE" transform="translate(396,649)"/>
<path d="M0 0 C0.66 0.33 1.32 0.66 2 1 C-1.465 3.97 -1.465 3.97 -5 7 C-5 6.01 -5 5.02 -5 4 C-2.5 1.8125 -2.5 1.8125 0 0 Z " fill="#C5C5C5" transform="translate(645,988)"/>
<path d="M0 0 C0.33 0.99 0.66 1.98 1 3 C-0.28965176 4.37562854 -1.62689293 5.70766393 -3 7 C-3.66 7 -4.32 7 -5 7 C-3.70700306 4.11562221 -2.34058637 2.12780579 0 0 Z " fill="#A7A7A7" transform="translate(706,931)"/>
</svg>
